<svg id="Layer_1" data-name="Layer 1" xmlns="http://www.w3.org/2000/svg" viewBox="0 0 226.29 204.42"><defs><style>.cls-1{fill:#eae137;}.cls-2{fill:#fff;}.cls-3{fill:#0f202f;}</style></defs><title>Untitled-2</title><polygon class="cls-1" points="90.13 101.49 170.72 55.17 170.96 148.03 89.85 194.78 90.13 101.49"/><path class="cls-2" d="M649.49,379.26l0.23,85.95-75.09,43.29,0.26-86.35,74.61-42.89m6-10.35-86.57,49.76L568.6,518.9l87.13-50.23-0.26-99.76h0Z" transform="translate(-481.76 -318.91)"/><polygon class="cls-3" points="3 148.03 3.25 55.17 83.84 101.49 84.12 194.78 3 148.03"/><path class="cls-2" d="M488,379.26l74.61,42.89,0.26,86.35-75.09-43.29L488,379.26m-6-10.35-0.26,99.76,87.13,50.23-0.3-100.23L482,368.9h0Z" transform="translate(-481.76 -318.91)"/><polygon class="cls-3" points="6.28 49.99 87.09 3.46 167.68 49.98 86.84 96.3 6.28 49.99"/><path class="cls-2" d="M568.85,325.84l74.57,43L568.6,411.75,494.06,368.9l74.8-43.06m0-6.93L482,368.9l86.57,49.76,86.87-49.76-86.61-50h0Z" transform="translate(-481.76 -318.91)"/><polygon class="cls-1" points="122.87 129.66 219 74.41 184.9 140.91 88.12 196.7 122.87 129.66"/><path class="cls-2" d="M693.46,401l-29.07,56.7L577.26,507.9l29.63-57.16L693.46,401m14.59-15.31-17.58,10.11L603.9,445.53l-1.53.88L601.57,448l-29.63,57.16-9.43,18.19,17.76-10.24,87.13-50.23,1.53-.88,0.81-1.58,29.07-56.7,9.25-18h0Z" transform="translate(-481.76 -318.91)"/></svg>
